<svg width="32" height="32" fill="none" xmlns="http://www.w3.org/2000/svg"><path fill-rule="evenodd" clip-rule="evenodd" d="M4.619 27.38C6.573 29.333 9.715 29.333 16 29.333s9.428 0 11.38-1.953c1.953-1.95 1.953-5.095 1.953-11.38 0-6.285 0-9.428-1.953-11.381C25.43 2.667 22.285 2.667 16 2.667c-6.285 0-9.428 0-11.381 1.952C2.667 6.573 2.667 9.715 2.667 16s0 9.428 1.952 11.38ZM25 21.333a1 1 0 0 1-1 1H8a1 1 0 0 1 0-2h16a1 1 0 0 1 1 1ZM24 17a1 1 0 1 0 0-2H8a1 1 0 0 0 0 2h16Zm1-6.333a1 1 0 0 1-1 1H8a1 1 0 0 1 0-2h16a1 1 0 0 1 1 1Z" fill="#000"/></svg>