<svg width="55" height="55" fill="none" xmlns="http://www.w3.org/2000/svg"><path d="M27.5 14.896A22.389 22.389 0 0 1 47.712 27.5c-3.78 7.723-11.504 12.604-20.212 12.604S11.069 35.223 7.287 27.5A22.39 22.39 0 0 1 27.5 14.896Zm0-4.584c-11.458 0-21.244 7.128-25.208 17.188C6.256 37.56 16.042 44.688 27.5 44.688c11.458 0 21.244-7.128 25.208-17.188-3.964-10.06-13.75-17.188-25.208-17.188Zm0 11.459a5.729 5.729 0 1 1 0 11.457 5.729 5.729 0 0 1 0-11.457Zm0-4.584c-5.683 0-10.313 4.63-10.313 10.313 0 5.683 4.63 10.313 10.313 10.313 5.683 0 10.313-4.63 10.313-10.313 0-5.683-4.63-10.313-10.313-10.313Z" fill="#0074E8"/></svg>