<svg width="55" height="55" fill="none" xmlns="http://www.w3.org/2000/svg"><path d="M27.5 52.708v-4.583h16.042v-2.292h-9.167V27.5h9.167v-2.292c0-4.43-1.566-8.211-4.698-11.343-3.132-3.132-6.913-4.698-11.344-4.698-4.43 0-8.212 1.566-11.344 4.698-3.132 3.132-4.698 6.913-4.698 11.343V27.5h9.167v18.333h-9.167c-1.26 0-2.34-.449-3.238-1.347-.898-.898-1.347-1.977-1.345-3.236V25.208c0-2.826.545-5.49 1.634-7.993 1.09-2.502 2.569-4.689 4.439-6.559 1.871-1.871 4.058-3.352 6.561-4.441 2.503-1.09 5.166-1.633 7.991-1.632 2.826 0 5.49.545 7.993 1.634 2.503 1.09 4.69 2.57 6.56 4.44 1.87 1.87 3.351 4.058 4.44 6.56 1.09 2.503 1.633 5.167 1.632 7.991v22.917c0 1.26-.45 2.34-1.347 3.238-.899.898-1.977 1.347-3.236 1.345H27.5Z" fill="#0074E8"/></svg>