<svg width="32" height="32" viewBox="0 0 32 32" fill="none" xmlns="http://www.w3.org/2000/svg">
<path d="M16 30.6667V28H25.3333V26.6667H20V16H25.3333V14.6667C25.3333 12.0889 24.4222 9.88888 22.6 8.06666C20.7778 6.24444 18.5778 5.33333 16 5.33333C13.4222 5.33333 11.2222 6.24444 9.4 8.06666C7.57778 9.88888 6.66667 12.0889 6.66667 14.6667V16H12V26.6667H6.66667C5.93334 26.6667 5.30534 26.4053 4.78267 25.8827C4.26 25.36 3.99911 24.7324 4 24V14.6667C4 13.0222 4.31689 11.472 4.95067 10.016C5.58445 8.55999 6.44534 7.28799 7.53334 6.19999C8.62222 5.1111 9.89467 4.24977 11.3507 3.61599C12.8067 2.98221 14.3564 2.66577 16 2.66666C17.6444 2.66666 19.1947 2.98355 20.6507 3.61733C22.1067 4.2511 23.3787 5.11199 24.4667 6.19999C25.5556 7.28888 26.4169 8.56133 27.0507 10.0173C27.6844 11.4733 28.0009 13.0231 28 14.6667V28C28 28.7333 27.7387 29.3613 27.216 29.884C26.6933 30.4067 26.0658 30.6675 25.3333 30.6667H16Z" fill="black"/>
</svg>
