<svg width="32" height="32" viewBox="0 0 32 32" fill="none" xmlns="http://www.w3.org/2000/svg">
<path d="M24.8667 3.80001L25.68 8.94668L30.36 11.3333L28 16L30.3733 20.6667L25.6533 23.0533L24.84 28.2L19.6533 27.3867L15.96 31.0667L12.2533 27.3333L7.10668 28.1867L6.28001 23L1.62668 20.6267L4.00001 15.96L1.64001 11.3333L6.32001 8.92001L7.13335 3.81335L12.2933 4.66668L16 0.920013L19.6933 4.61335L24.8667 3.80001ZM12.6667 9.33335C12.1362 9.33335 11.6275 9.54406 11.2525 9.91913C10.8774 10.2942 10.6667 10.8029 10.6667 11.3333C10.6667 11.8638 10.8774 12.3725 11.2525 12.7476C11.6275 13.1226 12.1362 13.3333 12.6667 13.3333C13.1971 13.3333 13.7058 13.1226 14.0809 12.7476C14.456 12.3725 14.6667 11.8638 14.6667 11.3333C14.6667 10.8029 14.456 10.2942 14.0809 9.91913C13.7058 9.54406 13.1971 9.33335 12.6667 9.33335ZM19.3333 18.6667C18.8029 18.6667 18.2942 18.8774 17.9191 19.2525C17.5441 19.6275 17.3333 20.1362 17.3333 20.6667C17.3333 21.1971 17.5441 21.7058 17.9191 22.0809C18.2942 22.456 18.8029 22.6667 19.3333 22.6667C19.8638 22.6667 20.3725 22.456 20.7476 22.0809C21.1226 21.7058 21.3333 21.1971 21.3333 20.6667C21.3333 20.1362 21.1226 19.6275 20.7476 19.2525C20.3725 18.8774 19.8638 18.6667 19.3333 18.6667ZM11.2133 22.6667L22.6667 11.2133L20.7867 9.33335L9.33335 20.7867L11.2133 22.6667Z" fill="black"/>
</svg>
