<svg width="55" height="55" fill="none" xmlns="http://www.w3.org/2000/svg"><path d="m42.74 6.531 1.398 8.846 8.043 4.102-4.056 8.021 4.08 8.02-8.113 4.103-1.398 8.846-8.915-1.398-6.348 6.325-6.37-6.417-8.846 1.467-1.421-8.915-7.998-4.079 4.079-8.02-4.056-7.953 8.044-4.148 1.397-8.777 8.87 1.467 6.37-6.44 6.348 6.348 8.892-1.398Zm-20.97 9.51a3.437 3.437 0 1 0 0 6.875 3.437 3.437 0 0 0 0-6.874Zm11.46 16.042a3.438 3.438 0 1 0 0 6.876 3.438 3.438 0 0 0 0-6.876Zm-13.957 6.875 19.685-19.685-3.23-3.231-19.686 19.685 3.23 3.231Z" fill="#0074E8"/></svg>