<svg width="55" height="55" viewBox="0 0 55 55" fill="none" xmlns="http://www.w3.org/2000/svg">
<path d="M1.71875 17.1875H24.0625L25.7812 20.625H3.4375L1.71875 17.1875ZM4.01042 24.0625H26.3542L28.0729 27.5H5.72917L4.01042 24.0625ZM41.25 42.3959C43.1521 42.3959 44.6875 40.8604 44.6875 38.9584C44.6875 37.0563 43.1521 35.5209 41.25 35.5209C39.3479 35.5209 37.8125 37.0563 37.8125 38.9584C37.8125 40.8604 39.3479 42.3959 41.25 42.3959ZM44.6875 21.7709H38.9583V27.5H49.1792L44.6875 21.7709ZM18.3333 42.3959C20.2354 42.3959 21.7708 40.8604 21.7708 38.9584C21.7708 37.0563 20.2354 35.5209 18.3333 35.5209C16.4312 35.5209 14.8958 37.0563 14.8958 38.9584C14.8958 40.8604 16.4312 42.3959 18.3333 42.3959ZM45.8333 18.3334L52.7083 27.5V38.9584H48.125C48.125 42.7625 45.0542 45.8334 41.25 45.8334C37.4458 45.8334 34.375 42.7625 34.375 38.9584H25.2083C25.2083 42.7625 22.1146 45.8334 18.3333 45.8334C14.5292 45.8334 11.4583 42.7625 11.4583 38.9584H6.875V30.9375H11.4583V34.375H13.2C14.4604 32.9771 16.2937 32.0834 18.3333 32.0834C20.3729 32.0834 22.2062 32.9771 23.4667 34.375H34.375V13.75H6.875C6.875 11.2063 8.91458 9.16669 11.4583 9.16669H38.9583V18.3334H45.8333Z" fill="#0074E8"/>
</svg>
